<svg id="logo--energisa" xmlns="http://www.w3.org/2000/svg" width="453.176" height="147.596" viewBox="0 0 453.176 147.596">
  <g id="Grupo_1376" data-name="Grupo 1376" transform="translate(0 0)">
    <path id="Caminho_2134" data-name="Caminho 2134" d="M316.42,1068.271c-33.275,0-61.362.013-61.362.013s70.351,23.159,39.742,70.179c0,0,52.037-36.433,21.62-70.192" transform="translate(-246.775 -1068.271)" fill="#fff"/>
    <path id="Caminho_2135" data-name="Caminho 2135" d="M293.878,1084.959c-34.666,14.326-64.182,51.812,1.575,104.857h55.9s-112.688-66.568-57.48-104.857" transform="translate(-244.826 -1042.221)" fill="#f37021"/>
    <path id="Caminho_2136" data-name="Caminho 2136" d="M255.12,1104.425s-10.318,26.44,5.555,55h38.443c-19.185-8.656-44.792-32.786-44-55" transform="translate(-251.824 -1011.834)" fill="#f37021"/>
    <path id="Caminho_2137" data-name="Caminho 2137" d="M312.616,1092.519c-15.161,0-23.738,11.711-23.738,27.4,0,18.3,8.887,26.663,25.1,26.663a47.594,47.594,0,0,0,17.989-3.339l-1.045-8.887a35.984,35.984,0,0,1-15.166,3.341c-10.354,0-15.676-5.435-15.374-17.467h33.153a51.823,51.823,0,0,0,.315-5.224c0-12.342-6.377-22.488-21.231-22.488M300.589,1112.4c.94-7.014,5.335-11.614,11.609-11.614,6.592,0,10.661,4.495,10.454,11.614Z" transform="translate(-193.981 -1030.42)" fill="#fff"/>
    <path id="Caminho_2138" data-name="Caminho 2138" d="M338.491,1092.519c-8.784,0-15.059,4.607-18.093,11.3l-.1-.11a68.766,68.766,0,0,0,.725-10.142H310.358v51.989h11.187v-25.114c0-10.354,5.75-18.613,13.6-18.613,5.954,0,7.742,3.772,7.742,10.251v33.475h11.074v-36.4c0-9.209-3.657-16.636-15.469-16.636" transform="translate(-160.45 -1030.42)" fill="#fff"/>
    <path id="Caminho_2139" data-name="Caminho 2139" d="M354.847,1092.519c-15.166,0-23.748,11.711-23.748,27.4,0,18.3,8.9,26.663,25.111,26.663a47.591,47.591,0,0,0,17.986-3.339l-1.047-8.887a36,36,0,0,1-15.164,3.341c-10.352,0-15.686-5.435-15.379-17.467h33.155a51.658,51.658,0,0,0,.31-5.224c0-12.342-6.372-22.488-21.223-22.488M342.816,1112.4c.945-7.014,5.337-11.614,11.612-11.614,6.587,0,10.659,4.495,10.457,11.614Z" transform="translate(-128.073 -1030.42)" fill="#fff"/>
    <path id="Caminho_2140" data-name="Caminho 2140" d="M362.419,1105.131H362.2a69.626,69.626,0,0,0,1.045-11.511H352.58v51.989h11.186V1124.48c0-15.587,5.03-22.806,15.374-20.921l.522-10.984c-9.721-.943-14.954,5.541-17.243,12.556" transform="translate(-94.541 -1030.476)" fill="#fff"/>
    <path id="Caminho_2141" data-name="Caminho 2141" d="M400.323,1136a30.16,30.16,0,0,1-7.655,1c-9.768,0-16.513-6.136-16.513-17.327,0-11.876,7.855-18.022,17.625-18.022a39.026,39.026,0,0,1,14.4,2.822l1.913-9.461a57.119,57.119,0,0,0-16.419-2.428c-18.224,0-29.1,12.291-29.1,28,0,17.128,11.381,25.989,27.09,25.989a53.356,53.356,0,0,0,19.533-3.529V1118.37H400.323Z" transform="translate(-75.818 -1030.318)" fill="#fff"/>
    <rect id="Retângulo_1956" data-name="Retângulo 1956" width="11.186" height="51.987" transform="translate(346.027 63.145)" fill="#fff"/>
    <path id="Caminho_2142" data-name="Caminho 2142" d="M455.051,1145.615c-.208-4.39-.315-9.724-.315-14.227V1110.1c0-10.666-4.395-17.568-20.289-17.568a51.947,51.947,0,0,0-18.306,3.448l1.045,9.521a31.828,31.828,0,0,1,15.487-4.187c8.136,0,10.856,4.376,10.864,10.838-10.8,0-21.369,2.643-26.855,8.221a16.142,16.142,0,0,0-3.455,5.15,15.216,15.216,0,0,0,1.47,14.781c3.206,4.79,6.779,6.48,12.741,6.362,8.259-.172,14.741-4.607,17.254-10.777l.11.11a68.927,68.927,0,0,0-.525,9.615Zm-11.5-24.883c0,7.427-5.119,17.146-12.759,17.146a9.462,9.462,0,0,1-4.464-.886c-2.866-1.524-5.75-8.959-.228-13.42a15.729,15.729,0,0,1,5.847-2.609,46.293,46.293,0,0,1,11.6-1.281Z" transform="translate(-1.874 -1030.398)" fill="#fff"/>
    <path id="Caminho_2143" data-name="Caminho 2143" d="M407.036,1106.643c.015-3.933,5.329-5.711,11.581-5.724a28.241,28.241,0,0,1,10.237,1.832l.5-8.577a29.52,29.52,0,0,0-9.847-1.511c-14.3.01-24.1,6.146-24.135,15.023-.059,17.766,25.411,13.8,25.375,24.112-.015,4.239-3.813,4.959-9.96,4.959a41.356,41.356,0,0,1-14.006-3.2l-.343,9.919a44.975,44.975,0,0,0,13.684,2.574c14.091-.01,22.455-5.691,22.491-15.286.062-17.046-25.618-14.209-25.577-24.12" transform="translate(-27.74 -1030.195)" fill="#fff"/>
  </g>
  <text id="LIGADA_NA_SUA_ENERGIA" data-name="LIGADA NA SUA ENERGIA" transform="translate(181.053 139.186)" fill="#fff" font-size="14" font-family="SegoeUI, Segoe UI" letter-spacing="0.1em"><tspan x="0" y="0">LIGADA NA SUA ENERGIA</tspan></text>
</svg>
